
<svg xmlns="http://www.w3.org/2000/svg" width="32" height="32" viewBox="0 0 24 24" fill="none" stroke="#0EA5E9" stroke-width="2" stroke-linecap="round" stroke-linejoin="round">
  <path d="M12 2C6.5 2 2 6.5 2 12s4.5 10 10 10 10-4.5 10-10S17.5 2 12 2" />
  <path d="M4.3 15a26 26 0 0 0 17.4 0" />
  <path d="M6 9c.4-1 .8-1.7 1.3-2" />
  <path d="M17 9c-.4-1-.8-1.7-1.3-2" />
  <path d="M12 19c2 0 4-1.5 4-5 0-1.5 0-3-1-4" />
  <path d="M8 15c0 .5.2 1 .6 1.4" />
  <path d="M16 15c0 .5-.2 1-.6 1.4" />
  <path d="M10 9.8a2 2 0 0 0-2 1" />
  <path d="M14 9.8a2 2 0 0 1 2 1" />
</svg>
