
<svg xmlns="http://www.w3.org/2000/svg" width="32" height="32" viewBox="0 0 24 24" fill="none" stroke="#0EA5E9" stroke-width="2" stroke-linecap="round" stroke-linejoin="round">
  <path d="M12 5c.67 0 1.35.09 2 .26 1.78-2 5.03-2.84 6.42-2.26 1.4.58-.42 7-.42 7 .57 1.07 .9 2.95.9 3.9 0 2.9-1.03 4.95-3.9 6.1-1.5.6-3.2.9-5 .9-1.8 0-3.5-.3-5-.9-2.87-1.15-3.9-3.2-3.9-6.1 0-.95.33-2.83.9-3.9 0 0-1.82-6.42-.42-7 1.39-.58 4.64.26 6.42 2.26.65-.17 1.33-.26 2-.26Z" />
  <path d="M8 14v.5" />
  <path d="M16 14v.5" />
  <path d="M11.25 16.25h1.5L12 17l-.75-.75Z" />
</svg>
